<svg width="21" height="23" viewBox="0 0 21 23" fill="none" xmlns="http://www.w3.org/2000/svg">
<path d="M2.59578 8.55993C2.59439 7.5637 2.79019 6.57705 3.17189 5.65684C3.5536 4.73664 4.11366 3.90108 4.8198 3.19834C5.52593 2.49559 6.36418 1.93956 7.28621 1.56228C8.20824 1.18501 9.19583 0.99396 10.192 1.00015C14.349 1.03105 17.674 4.48628 17.674 8.65484V9.39993C17.674 13.1606 18.4608 15.3428 19.1537 16.5355C19.2284 16.663 19.2681 16.8079 19.2689 16.9555C19.2697 17.1032 19.2315 17.2485 19.1582 17.3768C19.0849 17.505 18.9791 17.6116 18.8515 17.6859C18.7238 17.7602 18.5789 17.7996 18.4312 17.7999H1.83774C1.69003 17.7995 1.54503 17.7602 1.41737 17.6859C1.28971 17.6116 1.1839 17.5049 1.11063 17.3767C1.03735 17.2484 0.999197 17.1031 1.00001 16.9554C1.00083 16.8077 1.04059 16.6628 1.11527 16.5354C1.80862 15.3426 2.59577 13.1604 2.59577 9.39993L2.59578 8.55993Z" stroke="white" stroke-width="1.68" stroke-linecap="round" stroke-linejoin="round"/>
<path d="M6.77441 17.7998V18.6398C6.77441 19.5309 7.12841 20.3856 7.75853 21.0157C8.38866 21.6458 9.24329 21.9998 10.1344 21.9998C11.0255 21.9998 11.8802 21.6458 12.5103 21.0157C13.1404 20.3856 13.4944 19.5309 13.4944 18.6398V17.7998" stroke="white" stroke-width="1.68" stroke-linecap="round" stroke-linejoin="round"/>
</svg>
