<svg width="16" height="16" viewBox="0 0 16 16" fill="none" xmlns="http://www.w3.org/2000/svg">
<path d="M8 1.5C6.71442 1.5 5.45772 1.88122 4.3888 2.59545C3.31988 3.30968 2.48676 4.32484 1.99479 5.51256C1.50282 6.70028 1.37409 8.00721 1.6249 9.26809C1.8757 10.529 2.49477 11.6872 3.40381 12.5962C4.31285 13.5052 5.47104 14.1243 6.73192 14.3751C7.99279 14.6259 9.29973 14.4972 10.4874 14.0052C11.6752 13.5132 12.6903 12.6801 13.4046 11.6112C14.1188 10.5423 14.5 9.28558 14.5 8C14.498 6.2767 13.8126 4.62456 12.594 3.40601C11.3754 2.18745 9.7233 1.50199 8 1.5ZM10.6216 7.58447L8.37158 10.0845C8.32471 10.1366 8.26741 10.1782 8.20339 10.2067C8.13938 10.2353 8.07008 10.25 8 10.25C7.92992 10.25 7.86063 10.2353 7.79661 10.2067C7.7326 10.1782 7.67529 10.1366 7.62842 10.0845L5.37842 7.58447C5.33446 7.53568 5.30054 7.47871 5.27861 7.41681C5.25667 7.3549 5.24715 7.28929 5.25058 7.2237C5.25401 7.15812 5.27033 7.09385 5.2986 7.03457C5.32688 6.9753 5.36655 6.92217 5.41537 6.87824C5.46418 6.8343 5.52117 6.80041 5.58308 6.7785C5.645 6.7566 5.71062 6.74711 5.7762 6.75057C5.84178 6.75403 5.90604 6.77038 5.9653 6.79869C6.02457 6.82699 6.07767 6.86669 6.12158 6.91553L8 9.00244L9.87842 6.91553C9.92233 6.86669 9.97544 6.82699 10.0347 6.79869C10.094 6.77038 10.1582 6.75403 10.2238 6.75057C10.2894 6.74711 10.355 6.7566 10.4169 6.7785C10.4788 6.80041 10.5358 6.8343 10.5846 6.87824C10.6335 6.92217 10.6731 6.9753 10.7014 7.03457C10.7297 7.09385 10.746 7.15812 10.7494 7.2237C10.7529 7.28929 10.7433 7.3549 10.7214 7.41681C10.6995 7.47871 10.6655 7.53568 10.6216 7.58447Z" fill="#1D1D1D"/>
</svg>
