<svg width="18" height="18" viewBox="0 0 18 18" fill="none" xmlns="http://www.w3.org/2000/svg">
<path d="M14.7898 15.8449C13.2289 17.1632 11.2039 18 8.99961 18C5.71953 18 2.8402 16.1929 1.2793 13.5562L1.86366 10.8625L4.45391 10.3816C5.05508 12.3222 6.86911 13.746 8.99961 13.746C10.0332 13.746 10.993 13.4191 11.784 12.839L14.273 13.2187L14.7898 15.8449Z" fill="#AEAEAE"/>
<path d="M14.7902 15.845L14.2734 13.2188L11.7844 12.8391C10.9934 13.4192 10.0336 13.7461 9 13.7461V18C11.2043 18 13.2293 17.1633 14.7902 15.845Z" fill="#AEAEAE"/>
<path d="M4.25391 9.0001C4.25391 9.48522 4.32773 9.94928 4.4543 10.3817L1.27969 13.5563C0.488672 12.2274 0 10.6665 0 9.0001C0 7.33366 0.488672 5.77275 1.27969 4.44385L3.82757 4.88235L4.4543 7.61846C4.32773 8.05084 4.25391 8.51491 4.25391 9.0001Z" fill="#AEAEAE"/>
<path d="M18 9C18 11.7422 16.7309 14.1996 14.7902 15.8449L11.7844 12.8391C12.3961 12.3961 12.9129 11.8054 13.2504 11.1094H9C8.70465 11.1094 8.47266 10.8773 8.47266 10.582V7.41797C8.47266 7.12262 8.70465 6.89062 9 6.89062H17.325C17.5781 6.89062 17.7996 7.06989 17.8418 7.32301C17.9473 7.87148 18 8.44098 18 9Z" fill="#AEAEAE"/>
<path d="M13.2504 11.1094C12.9129 11.8054 12.3961 12.3961 11.7844 12.8391L14.7902 15.8449C16.7309 14.1996 18 11.7422 18 9C18 8.44098 17.9473 7.87148 17.8418 7.32301C17.7996 7.06989 17.5781 6.89062 17.325 6.89062H9V11.1094H13.2504Z" fill="#AEAEAE"/>
<path d="M14.9375 2.51364C14.948 2.66129 14.8848 2.79844 14.7898 2.90387L12.5328 5.15036C12.3536 5.3402 12.0582 5.36129 11.8473 5.20309C11.014 4.58086 10.0332 4.25391 8.99961 4.25391C6.86911 4.25391 5.05508 5.6777 4.45391 7.61836L1.2793 4.44375C2.8402 1.80703 5.71953 0 8.99961 0C11.0984 0 13.1445 0.773438 14.7477 2.1234C14.8637 2.21836 14.927 2.36598 14.9375 2.51364Z" fill="#AEAEAE"/>
<path d="M11.8477 5.20309C12.0586 5.36133 12.3539 5.3402 12.5332 5.15036L14.7902 2.90387C14.8852 2.79844 14.9484 2.66133 14.9379 2.51364C14.9273 2.36595 14.864 2.21836 14.748 2.1234C13.1449 0.773438 11.0988 0 9 0V4.25391C10.0336 4.25391 11.0144 4.58086 11.8477 5.20309Z" fill="#AEAEAE"/>
</svg>
