<svg width="18" height="18" viewBox="0 0 18 18" fill="none" xmlns="http://www.w3.org/2000/svg">
<path d="M3.375 2.8125L14.625 15.1875" stroke="white" stroke-linecap="round" stroke-linejoin="round"/>
<path d="M10.8919 11.0811C10.3399 11.5828 9.61128 11.8447 8.86624 11.8092C8.1212 11.7737 7.42078 11.4437 6.91905 10.8918C6.41731 10.3399 6.15536 9.61126 6.1908 8.86622C6.22625 8.12118 6.55619 7.42073 7.10805 6.91895" stroke="white" stroke-linecap="round" stroke-linejoin="round"/>
<path d="M5.20274 4.82275C2.33615 6.27439 1.125 8.99977 1.125 8.99977C1.125 8.99977 3.375 14.0617 9 14.0617C10.3179 14.0722 11.6194 13.7687 12.7967 13.1762" stroke="white" stroke-linecap="round" stroke-linejoin="round"/>
<path d="M14.6679 11.8897C16.2008 10.5167 16.875 8.99995 16.875 8.99995C16.875 8.99995 14.625 3.9369 8.99999 3.9369C8.51282 3.9361 8.02641 3.97571 7.54578 4.05532" stroke="white" stroke-linecap="round" stroke-linejoin="round"/>
<path d="M9.5293 6.2373C10.1271 6.35209 10.6715 6.6576 11.081 7.10801C11.4904 7.55842 11.7428 8.12944 11.8002 8.73542" stroke="white" stroke-linecap="round" stroke-linejoin="round"/>
</svg>
