<svg width="20" height="20" viewBox="0 0 20 20" fill="none" xmlns="http://www.w3.org/2000/svg">
<path d="M3.75 3.125L16.25 16.875" stroke="#BABABA" stroke-linecap="round" stroke-linejoin="round"/>
<path d="M12.1019 12.3124C11.4887 12.8698 10.6791 13.1608 9.85124 13.1214C9.02342 13.0819 8.24518 12.7152 7.6877 12.102C7.13021 11.4888 6.83915 10.6792 6.87853 9.85138C6.91792 9.02356 7.28452 8.24528 7.8977 7.68774" stroke="#BABABA" stroke-linecap="round" stroke-linejoin="round"/>
<path d="M5.78082 5.35889C2.59572 6.97182 1.25 10 1.25 10C1.25 10 3.75 15.6244 10 15.6244C11.4644 15.6361 12.9105 15.2988 14.2186 14.6405" stroke="#BABABA" stroke-linecap="round" stroke-linejoin="round"/>
<path d="M16.2977 13.211C18.001 11.6855 18.7501 10.0001 18.7501 10.0001C18.7501 10.0001 16.2501 4.37452 10.0001 4.37452C9.45876 4.37364 8.91831 4.41765 8.38428 4.5061" stroke="#BABABA" stroke-linecap="round" stroke-linejoin="round"/>
<path d="M10.5879 6.93042C11.2521 7.05796 11.857 7.39742 12.312 7.89787C12.7669 8.39832 13.0473 9.03279 13.1112 9.7061" stroke="#BABABA" stroke-linecap="round" stroke-linejoin="round"/>
</svg>
