<svg width="76" height="76" viewBox="0 0 76 76" fill="none" xmlns="http://www.w3.org/2000/svg">
<path d="M68.2733 34.0098L63.9666 29.0064C63.1433 28.0564 62.4783 26.2831 62.4783 25.0164V19.6331C62.4783 16.2764 59.7233 13.5214 56.3666 13.5214H50.9833C49.7483 13.5214 47.9433 12.8564 46.9933 12.0331L41.99 7.72645C39.805 5.85811 36.2266 5.85811 34.01 7.72645L29.0383 12.0648C28.0883 12.8564 26.2833 13.5214 25.0483 13.5214H19.57C16.2133 13.5214 13.4583 16.2764 13.4583 19.6331V25.0481C13.4583 26.2831 12.7933 28.0564 12.0016 29.0064L7.72662 34.0414C5.88995 36.2264 5.88995 39.7731 7.72662 41.9581L12.0016 46.9931C12.7933 47.9431 13.4583 49.7164 13.4583 50.9514V56.3664C13.4583 59.7231 16.2133 62.4781 19.57 62.4781H25.0483C26.2833 62.4781 28.0883 63.1431 29.0383 63.9664L34.0416 68.2731C36.2266 70.1414 39.805 70.1414 42.0216 68.2731L47.025 63.9664C47.975 63.1431 49.7483 62.4781 51.015 62.4781H56.3983C59.7549 62.4781 62.51 59.7231 62.51 56.3664V50.9831C62.51 49.7481 63.1749 47.9431 63.9983 46.9931L68.305 41.9898C70.1416 39.8048 70.1416 36.1948 68.2733 34.0098ZM51.1733 32.0148L35.8783 47.3098C35.435 47.7531 34.8333 48.0064 34.2 48.0064C33.5666 48.0064 32.965 47.7531 32.5216 47.3098L24.8583 39.6464C23.94 38.7281 23.94 37.2081 24.8583 36.2898C25.7766 35.3714 27.2966 35.3714 28.215 36.2898L34.2 42.2748L47.8166 28.6581C48.735 27.7398 50.255 27.7398 51.1733 28.6581C52.0916 29.5764 52.0916 31.0964 51.1733 32.0148Z" fill="#242424"/>
</svg>
