<svg width="18" height="18" viewBox="0 0 18 18" fill="none" xmlns="http://www.w3.org/2000/svg">
<path d="M3.82928 14.1707C3.18213 13.5236 3.61136 12.1649 3.28196 11.3688C2.94049 10.5435 1.6875 9.87925 1.6875 8.99997C1.6875 8.12071 2.9405 7.4565 3.28196 6.63123C3.61136 5.83511 3.18213 4.47644 3.82928 3.82928C4.47644 3.18213 5.83512 3.61136 6.63123 3.28196C7.45652 2.94049 8.12075 1.6875 9.00003 1.6875C9.87929 1.6875 10.5435 2.9405 11.3688 3.28196C12.1649 3.61136 13.5236 3.18213 14.1707 3.82928C14.8179 4.47644 14.3886 5.83512 14.718 6.63123C15.0595 7.45652 16.3125 8.12075 16.3125 9.00003C16.3125 9.87929 15.0595 10.5435 14.718 11.3688C14.3886 12.1649 14.8179 13.5236 14.1707 14.1707C13.5236 14.8179 12.1649 14.3886 11.3688 14.718C10.5435 15.0595 9.87925 16.3125 8.99997 16.3125C8.12071 16.3125 7.4565 15.0595 6.63123 14.718C5.83511 14.3886 4.47644 14.8179 3.82928 14.1707Z" stroke="white" stroke-linecap="round" stroke-linejoin="round"/>
<path d="M8.99988 13.3594C9.3882 13.3594 9.703 13.0446 9.703 12.6562C9.703 12.2679 9.3882 11.9531 8.99988 11.9531C8.61155 11.9531 8.29675 12.2679 8.29675 12.6562C8.29675 13.0446 8.61155 13.3594 8.99988 13.3594Z" fill="white"/>
<path d="M9 10.1255V9.56299C9.38938 9.56299 9.77002 9.44752 10.0938 9.23119C10.4175 9.01487 10.6699 8.70739 10.8189 8.34765C10.9679 7.98791 11.0069 7.59206 10.9309 7.21016C10.855 6.82825 10.6675 6.47746 10.3921 6.20212C10.1168 5.92679 9.76598 5.73928 9.38408 5.66332C9.00218 5.58735 8.60633 5.62634 8.24659 5.77535C7.88685 5.92436 7.57937 6.1767 7.36304 6.50046C7.14672 6.82422 7.03125 7.20486 7.03125 7.59424" stroke="white" stroke-linecap="round" stroke-linejoin="round"/>
</svg>
