<svg width="18" height="18" viewBox="0 0 18 18" fill="none" xmlns="http://www.w3.org/2000/svg">
<path d="M6.63117 15.75C4.81148 15.75 3.11522 15.2207 1.6875 14.3075C2.89968 14.386 5.03891 14.1981 6.36951 12.9289C4.36786 12.8371 3.46515 11.3019 3.3474 10.6459C3.51748 10.7115 4.32861 10.7902 4.7865 10.6065C2.48394 10.0292 2.13071 8.00849 2.20921 7.3918C2.64094 7.69359 3.37357 7.79855 3.66139 7.77231C1.51582 6.23713 2.2877 3.9278 2.6671 3.4292C4.20684 5.56237 6.51443 6.76045 9.36921 6.82709C9.31539 6.59101 9.28696 6.34524 9.28696 6.0928C9.28696 4.28114 10.7513 2.8125 12.5576 2.8125C13.5014 2.8125 14.3519 3.21342 14.9488 3.85472C15.5795 3.70693 16.5287 3.36098 16.9927 3.0618C16.7588 3.90156 16.0307 4.60209 15.5902 4.86173C15.5939 4.87056 15.5866 4.85286 15.5902 4.86173C15.9771 4.80321 17.0239 4.60202 17.4375 4.32144C17.233 4.7932 16.461 5.5776 15.8275 6.01674C15.9453 11.2152 11.968 15.75 6.63117 15.75Z" fill="#AEAEAE"/>
</svg>
